<svg version="1.1" id="Layer_1" xmlns="http://www.w3.org/2000/svg" xmlns:xlink="http://www.w3.org/1999/xlink" x="0px" y="0px" width="32px" height="32px" viewBox="368 79 465 474" enable-background="new 0 0 1200 610" xml:space="preserve">

<path fill="#FDFDFD" opacity="1.000000" stroke="none" d="
M832.159668,343.238220 
	C832.664673,344.822601 833.621033,346.411011 833.606812,347.990753 
	C833.405640,370.457123 832.982605,392.921875 832.857483,415.388336 
	C832.835632,419.323761 831.701660,421.589935 828.163025,423.638794 
	C753.323975,466.970764 678.569092,510.448059 603.120605,553.748413 
	C602.279114,551.801270 601.953857,550.000610 601.974731,548.204102 
	C602.247131,524.743042 602.568542,501.282562 603.102905,477.566833 
	C655.755615,446.831696 708.187500,416.359131 760.592102,385.839722 
	C762.385071,384.795563 763.904663,383.282013 765.886597,382.086792 
	C767.429626,381.636566 768.694641,381.184967 769.837158,380.522125 
	C785.098511,371.667969 800.382629,362.851715 815.570618,353.873047 
	C821.221191,350.532562 826.636902,346.794800 832.159668,343.238220 
z" data-index="1" style="opacity: 1;"></path>
<path fill="#FEFEFE" opacity="1.000000" stroke="none" d="
M368.430267,288.849274 
	C368.710114,264.384155 368.912720,239.917389 369.437469,215.457550 
	C369.473785,213.764282 371.568329,211.540985 373.277313,210.542007 
	C413.919067,186.784821 454.642212,163.166962 495.344055,139.512558 
	C530.006409,119.368111 564.660645,99.209717 599.674866,79.480148 
	C599.674927,105.240501 599.318542,130.578201 598.730713,156.170441 
	C558.826111,179.476395 519.137024,202.500381 479.488342,225.593643 
	C465.139587,233.951035 450.887451,242.474365 436.252808,250.933624 
	C415.991577,262.569855 396.089844,274.230896 376.117889,285.770416 
	C373.752167,287.137329 371.002167,287.839142 368.430267,288.849274 
z" data-index="2"></path>
<path fill="#FEFEFE" opacity="1.000000" stroke="none" d="
M833.095703,212.921997 
	C833.291504,214.179916 833.670715,215.440018 833.655884,216.695450 
	C833.387268,239.456741 832.995544,262.216949 832.843262,284.978851 
	C832.819336,288.554596 831.758423,290.626007 828.570496,292.438568 
	C814.865356,300.230865 801.331604,308.324677 787.256836,316.567627 
	C769.946594,326.578369 753.079895,336.270477 736.304077,346.117249 
	C731.077332,349.185181 726.096191,352.671478 720.626099,355.950378 
	C718.327820,356.834564 716.325745,357.595947 714.496033,358.655121 
	C677.381165,380.140045 640.285950,401.659149 602.827393,422.912292 
	C602.297119,420.700134 601.960388,418.745300 601.980713,416.794189 
	C602.223816,393.446655 602.520081,370.099731 602.987549,346.458923 
	C619.475098,336.789124 635.777344,327.412994 652.421204,317.981079 
	C669.207520,308.261322 685.690674,298.661774 702.076416,288.898590 
	C707.841370,285.463654 713.367554,281.627808 719.375977,277.976929 
	C720.669250,277.674072 721.676270,277.518799 722.496582,277.042358 
	C736.779663,268.747711 751.039795,260.413635 765.642822,252.055298 
	C788.352356,238.988937 810.723999,225.955460 833.095703,212.921997 
z" data-index="3" style="opacity: 1;"></path>
<path fill="#FEFEFE" opacity="1.000000" stroke="none" d="
M368.437317,419.851440 
	C368.714874,395.404449 368.928345,370.956146 369.414673,346.513306 
	C369.446991,344.890045 371.204498,342.723755 372.750946,341.798584 
	C386.158813,333.777649 399.702148,325.983063 413.888977,318.012207 
	C415.339081,317.280914 416.038788,316.544281 416.881531,316.053101 
	C431.317139,307.639923 445.800323,299.308075 460.207275,290.846344 
	C467.557251,286.529449 474.777435,281.991516 482.441284,277.570679 
	C502.498596,266.192932 522.158630,254.776794 541.846619,243.408997 
	C561.233093,232.215317 580.647766,221.070587 600.049194,210.379456 
	C599.680481,236.193222 599.312622,261.531921 598.701416,287.116516 
	C582.204041,296.879150 565.950012,306.395844 549.355713,315.931458 
	C533.665710,324.954407 518.282837,333.902588 502.981384,342.988068 
	C496.192596,347.018982 489.568542,351.327301 482.488922,355.537598 
	C466.935242,364.351349 451.762360,373.137177 436.250427,381.928467 
	C419.272369,391.605377 402.679688,401.357880 385.968719,410.903412 
	C380.277985,414.154022 374.289673,416.883728 368.437317,419.851440 
z" data-index="4" style="opacity: 1;"></path>
<path fill="#B2B2B2" opacity="1.000000" stroke="none" d="
M833.000977,212.587921 
	C810.723999,225.955460 788.352356,238.988937 765.500000,251.723328 
	C764.207825,250.851990 763.435669,250.211853 762.579407,249.717209 
	C709.409851,219.001038 656.235535,188.293182 603.045227,157.613007 
	C601.779114,156.882736 600.327332,156.474380 598.962158,155.915894 
	C599.318542,130.578201 599.674927,105.240501 600.025513,79.431396 
	C601.364380,79.318390 602.867310,79.402718 604.031311,80.074318 
	C680.340454,124.103905 756.622070,168.180969 833.000977,212.587921 
z" data-index="5"></path>
<path fill="#B2B2B2" opacity="1.000000" stroke="none" d="
M368.372192,420.187805 
	C374.289673,416.883728 380.277985,414.154022 385.968719,410.903412 
	C402.679688,401.357880 419.272369,391.605377 436.519043,382.170410 
	C475.894470,404.821533 514.644714,427.266449 553.438171,449.636475 
	C569.871338,459.112610 586.395081,468.431519 602.877686,477.821899 
	C602.568542,501.282562 602.247131,524.743042 601.974731,548.204102 
	C601.953857,550.000610 602.279114,551.801270 602.792175,553.865723 
	C601.272095,553.814819 599.118469,553.994446 597.576233,553.109070 
	C557.485229,530.093262 517.455750,506.970123 477.419708,483.858459 
	C442.279449,463.572998 407.142639,443.281555 372.012604,422.978333 
	C370.732300,422.238342 369.540253,421.345673 368.372192,420.187805 
z" data-index="6"></path>
<path fill="#B2B2B2" opacity="1.000000" stroke="none" d="
M482.056274,277.553497 
	C474.777435,281.991516 467.557251,286.529449 460.207275,290.846344 
	C445.800323,299.308075 431.317139,307.639923 416.881531,316.053101 
	C416.038788,316.544281 415.339081,317.280914 414.217529,317.907837 
	C412.614777,316.623047 411.575317,314.984192 410.087463,314.098755 
	C396.197479,305.832672 382.230560,297.695862 368.358093,289.185425 
	C371.002167,287.839142 373.752167,287.137329 376.117889,285.770416 
	C396.089844,274.230896 415.991577,262.569855 436.502258,251.196274 
	C452.078827,260.149323 467.067566,268.851410 482.056274,277.553497 
z" data-index="7" style="opacity: 1;"></path>
<path fill="#B3B3B3" opacity="1.000000" stroke="none" d="
M721.002625,355.966309 
	C726.096191,352.671478 731.077332,349.185181 736.304077,346.117249 
	C753.079895,336.270477 769.946594,326.578369 787.107910,316.907593 
	C802.266113,325.545990 817.094666,334.103394 832.041382,342.949524 
	C826.636902,346.794800 821.221191,350.532562 815.570618,353.873047 
	C800.382629,362.851715 785.098511,371.667969 769.837158,380.522125 
	C768.694641,381.184967 767.429626,381.636566 765.507935,382.046051 
	C754.914734,376.202515 745.004639,370.550964 735.168396,364.773865 
	C730.375488,361.958893 725.720215,358.909546 721.002625,355.966309 
z" data-index="8" style="opacity: 1;"></path>

<path fill="#020202" opacity="1.000000" stroke="none" d="
M482.441284,277.570679 
	C467.067566,268.851410 452.078827,260.149323 436.840668,251.184601 
	C450.887451,242.474365 465.139587,233.951035 479.488342,225.593643 
	C519.137024,202.500381 558.826111,179.476395 598.730713,156.170441 
	C600.327332,156.474380 601.779114,156.882736 603.045227,157.613007 
	C656.235535,188.293182 709.409851,219.001038 762.579407,249.717209 
	C763.435669,250.211853 764.207825,250.851990 765.162109,251.756195 
	C751.039795,260.413635 736.779663,268.747711 722.496582,277.042358 
	C721.676270,277.518799 720.669250,277.674072 719.260193,277.652863 
	C680.534729,255.215210 642.302856,233.095352 604.039246,211.030563 
	C602.878906,210.361465 601.387268,210.266830 600.050110,209.904388 
	C580.647766,221.070587 561.233093,232.215317 541.846619,243.408997 
	C522.158630,254.776794 502.498596,266.192932 482.441284,277.570679 
z" data-index="10" style="opacity: 1; visibility: hidden;"></path>
<path fill="#B2B2B2" opacity="1.000000" stroke="none" d="
M600.049194,210.379456 
	C601.387268,210.266830 602.878906,210.361465 604.039246,211.030563 
	C642.302856,233.095352 680.534729,255.215210 718.887024,277.650970 
	C713.367554,281.627808 707.841370,285.463654 702.076416,288.898590 
	C685.690674,298.661774 669.207520,308.261322 652.379761,317.632111 
	C651.529114,316.881683 651.132141,316.302460 650.583618,315.984955 
	C634.313110,306.566437 618.032104,297.166046 601.731445,287.799927 
	C600.899292,287.321808 599.877991,287.172852 598.944763,286.870605 
	C599.312622,261.531921 599.680481,236.193222 600.049194,210.379456 
z" data-index="11" style="opacity: 1;"></path>
<path fill="#B2B2B2" opacity="1.000000" stroke="none" d="
M602.827393,422.912323 
	C601.602661,423.035675 599.725830,423.408722 598.476746,422.690369 
	C560.028687,400.577179 521.642029,378.357147 483.057831,355.831665 
	C489.568542,351.327301 496.192596,347.018982 502.981384,342.988068 
	C518.282837,333.902588 533.665710,324.954407 549.515381,316.254181 
	C554.018677,318.933319 557.986267,321.371643 562.032043,323.672394 
	C575.607117,331.392273 589.210083,339.063049 602.802368,346.752625 
	C602.520081,370.099731 602.223816,393.446655 601.980713,416.794189 
	C601.960388,418.745300 602.297119,420.700134 602.827393,422.912323 
z" data-index="12" style="opacity: 1;"></path>

</svg>